<svg xmlns="http://www.w3.org/2000/svg" width="838" height="681" font-family="Helvetica, Arial, sans-serif">
<rect width="100%" height="100%" fill="#ffffff"/>
<rect x="24" y="40" width="790" height="611" fill="#f7f7f7" stroke="#333" stroke-width="1.5"/>
<rect x="24" y="40" width="790" height="24" fill="#3b4a5a"/><text x="32" y="56" font-size="12" text-anchor="start" font-weight="bold" font-style="normal" fill="#fff">FEN_Composants</text><text x="806" y="56" font-size="10" text-anchor="end" font-weight="normal" font-style="normal" fill="#dde">788×585</text>
<rect x="37" y="77" width="327" height="30" fill="#f3f3f3" stroke="#999999" stroke-width="1"  />
<text x="41" y="96" font-size="11" text-anchor="start" font-weight="bold" font-style="normal" fill="#333">Composants</text>
<rect x="597" y="80" width="96" height="24" fill="#ffd9a0" stroke="#c77d00" stroke-width="1"  rx="4"/>
<text x="645" y="96" font-size="10" text-anchor="middle" font-weight="bold" font-style="normal" fill="#222">Valider</text>
<rect x="699" y="80" width="96" height="24" fill="#ffd9a0" stroke="#c77d00" stroke-width="1"  rx="4"/>
<text x="747" y="96" font-size="10" text-anchor="middle" font-weight="bold" font-style="normal" fill="#222">Annuler</text>
<rect x="37" y="123" width="760" height="481" fill="#dff3ee" stroke="#0f8a6f" stroke-width="1"  />
<rect x="37" y="123" width="760" height="20" fill="#bfe6da" stroke="#0f8a6f"/>
<text x="40" y="137" font-size="9" text-anchor="start" font-weight="bold" font-style="italic" fill="#888">IDCOMPOSANT</text>
<line x1="113" y1="123" x2="113" y2="604" stroke="#a9d6c9"/>
<text x="116" y="137" font-size="9" text-anchor="start" font-weight="bold" font-style="normal" fill="#0b4d3e">Type</text>
<line x1="189" y1="123" x2="189" y2="604" stroke="#a9d6c9"/>
<text x="192" y="137" font-size="9" text-anchor="start" font-weight="bold" font-style="normal" fill="#0b4d3e">Marque</text>
<line x1="265" y1="123" x2="265" y2="604" stroke="#a9d6c9"/>
<text x="268" y="137" font-size="9" text-anchor="start" font-weight="bold" font-style="normal" fill="#0b4d3e">Modèle</text>
<line x1="341" y1="123" x2="341" y2="604" stroke="#a9d6c9"/>
<text x="344" y="137" font-size="9" text-anchor="start" font-weight="bold" font-style="normal" fill="#0b4d3e">NSerie</text>
<line x1="417" y1="123" x2="417" y2="604" stroke="#a9d6c9"/>
<text x="420" y="137" font-size="9" text-anchor="start" font-weight="bold" font-style="normal" fill="#0b4d3e">Utilisateur</text>
<line x1="493" y1="123" x2="493" y2="604" stroke="#a9d6c9"/>
<text x="496" y="137" font-size="9" text-anchor="start" font-weight="bold" font-style="normal" fill="#0b4d3e">NomMachine</text>
<line x1="569" y1="123" x2="569" y2="604" stroke="#a9d6c9"/>
<text x="572" y="137" font-size="9" text-anchor="start" font-weight="bold" font-style="normal" fill="#0b4d3e">NomFournisseur</text>
<line x1="645" y1="123" x2="645" y2="604" stroke="#a9d6c9"/>
<text x="648" y="137" font-size="9" text-anchor="start" font-weight="bold" font-style="normal" fill="#0b4d3e">DateAchat</text>
<line x1="721" y1="123" x2="721" y2="604" stroke="#a9d6c9"/>
<text x="724" y="137" font-size="9" text-anchor="start" font-weight="bold" font-style="italic" fill="#888">IDMODELE</text>
<line x1="797" y1="123" x2="797" y2="604" stroke="#a9d6c9"/>
<line x1="37" y1="161" x2="797" y2="161" stroke="#cfe9e1"/>
<line x1="37" y1="179" x2="797" y2="179" stroke="#cfe9e1"/>
<line x1="37" y1="197" x2="797" y2="197" stroke="#cfe9e1"/>
<line x1="37" y1="215" x2="797" y2="215" stroke="#cfe9e1"/>
<line x1="37" y1="233" x2="797" y2="233" stroke="#cfe9e1"/>
<line x1="37" y1="251" x2="797" y2="251" stroke="#cfe9e1"/>
<line x1="37" y1="269" x2="797" y2="269" stroke="#cfe9e1"/>
<line x1="37" y1="287" x2="797" y2="287" stroke="#cfe9e1"/>
<line x1="37" y1="305" x2="797" y2="305" stroke="#cfe9e1"/>
<line x1="37" y1="323" x2="797" y2="323" stroke="#cfe9e1"/>
<line x1="37" y1="341" x2="797" y2="341" stroke="#cfe9e1"/>
<line x1="37" y1="359" x2="797" y2="359" stroke="#cfe9e1"/>
<line x1="37" y1="377" x2="797" y2="377" stroke="#cfe9e1"/>
<line x1="37" y1="395" x2="797" y2="395" stroke="#cfe9e1"/>
<line x1="37" y1="413" x2="797" y2="413" stroke="#cfe9e1"/>
<line x1="37" y1="431" x2="797" y2="431" stroke="#cfe9e1"/>
<line x1="37" y1="449" x2="797" y2="449" stroke="#cfe9e1"/>
<line x1="37" y1="467" x2="797" y2="467" stroke="#cfe9e1"/>
<line x1="37" y1="485" x2="797" y2="485" stroke="#cfe9e1"/>
<line x1="37" y1="503" x2="797" y2="503" stroke="#cfe9e1"/>
<line x1="37" y1="521" x2="797" y2="521" stroke="#cfe9e1"/>
<line x1="37" y1="539" x2="797" y2="539" stroke="#cfe9e1"/>
<line x1="37" y1="557" x2="797" y2="557" stroke="#cfe9e1"/>
<line x1="37" y1="575" x2="797" y2="575" stroke="#cfe9e1"/>
<text x="41" y="598" font-size="9" text-anchor="start" font-weight="normal" font-style="italic" fill="#0b4d3e">Table Composants</text>
<rect x="24" y="663" width="14" height="12" fill="#ffffff" stroke="#2f6fd6"/><text x="42" y="673" font-size="9" text-anchor="start" font-weight="normal" font-style="normal" fill="#222">Saisie (SAI_)</text>
<rect x="149" y="663" width="14" height="12" fill="#fff3c4" stroke="#b58a00"/><text x="167" y="673" font-size="9" text-anchor="start" font-weight="normal" font-style="normal" fill="#222">Combo (COMBO_)</text>
<rect x="274" y="663" width="14" height="12" fill="#ffd9a0" stroke="#c77d00"/><text x="292" y="673" font-size="9" text-anchor="start" font-weight="normal" font-style="normal" fill="#222">Bouton (BTN_)</text>
<rect x="399" y="663" width="14" height="12" fill="#f3f3f3" stroke="#999999"/><text x="417" y="673" font-size="9" text-anchor="start" font-weight="normal" font-style="normal" fill="#222">Libellé (LIB_)</text>
<rect x="524" y="663" width="14" height="12" fill="#dff3ee" stroke="#0f8a6f"/><text x="542" y="673" font-size="9" text-anchor="start" font-weight="normal" font-style="normal" fill="#222">Table (TABLE_)</text>
<rect x="649" y="663" width="14" height="12" fill="#e6f4e6" stroke="#2e8b3d"/><text x="667" y="673" font-size="9" text-anchor="start" font-weight="normal" font-style="normal" fill="#222">Liste (LISTE_/LSI_)</text>
<rect x="774" y="663" width="14" height="12" fill="#ece3fb" stroke="#7a48c9"/><text x="792" y="673" font-size="9" text-anchor="start" font-weight="normal" font-style="normal" fill="#222">Image (IMG_)</text>
</svg>