<svg xmlns="http://www.w3.org/2000/svg" width="729" height="588" font-family="Helvetica, Arial, sans-serif">
<rect width="100%" height="100%" fill="#ffffff"/>
<rect x="24" y="40" width="681" height="518" fill="#f7f7f7" stroke="#333" stroke-width="1.5"/>
<rect x="24" y="40" width="681" height="24" fill="#3b4a5a"/><text x="32" y="56" font-size="12" text-anchor="start" font-weight="bold" font-style="normal" fill="#fff">FEN_Fournisseur</text><text x="697" y="56" font-size="10" text-anchor="end" font-weight="normal" font-style="normal" fill="#dde">679×492</text>
<rect x="37" y="77" width="246" height="30" fill="#f3f3f3" stroke="#999999" stroke-width="1"  />
<text x="41" y="96" font-size="11" text-anchor="start" font-weight="bold" font-style="normal" fill="#333">Gestion des Fournisseurs</text>
<rect x="399" y="120" width="290" height="389" fill="#f3f3f3" stroke="#999999" stroke-width="1" stroke-dasharray="4 3" />
<text x="403" y="134" font-size="10" text-anchor="start" font-weight="normal" font-style="italic" fill="#777">InfosLieu</text>
<rect x="289" y="80" width="96" height="24" fill="#ffd9a0" stroke="#c77d00" stroke-width="1"  rx="4"/>
<text x="337" y="96" font-size="10" text-anchor="middle" font-weight="bold" font-style="normal" fill="#222">Nouveau</text>
<rect x="391" y="80" width="96" height="24" fill="#ffd9a0" stroke="#c77d00" stroke-width="1"  rx="4"/>
<text x="439" y="96" font-size="10" text-anchor="middle" font-weight="bold" font-style="normal" fill="#222">Modifier</text>
<rect x="493" y="80" width="96" height="24" fill="#ffd9a0" stroke="#c77d00" stroke-width="1"  rx="4"/>
<text x="541" y="96" font-size="10" text-anchor="middle" font-weight="bold" font-style="normal" fill="#222">Supprimer</text>
<rect x="595" y="80" width="96" height="24" fill="#ffd9a0" stroke="#c77d00" stroke-width="1"  rx="4"/>
<text x="643" y="96" font-size="10" text-anchor="middle" font-weight="bold" font-style="normal" fill="#222">Imprimer</text>
<rect x="37" y="120" width="347" height="389" fill="#dff3ee" stroke="#0f8a6f" stroke-width="1"  />
<rect x="37" y="120" width="347" height="20" fill="#bfe6da" stroke="#0f8a6f"/>
<text x="40" y="134" font-size="9" text-anchor="start" font-weight="bold" font-style="italic" fill="#888">IDFournis…</text>
<line x1="95" y1="120" x2="95" y2="509" stroke="#a9d6c9"/>
<text x="98" y="134" font-size="9" text-anchor="start" font-weight="bold" font-style="normal" fill="#0b4d3e">NomFourni…</text>
<line x1="153" y1="120" x2="153" y2="509" stroke="#a9d6c9"/>
<text x="156" y="134" font-size="9" text-anchor="start" font-weight="bold" font-style="normal" fill="#0b4d3e">Adresse</text>
<line x1="211" y1="120" x2="211" y2="509" stroke="#a9d6c9"/>
<text x="214" y="134" font-size="9" text-anchor="start" font-weight="bold" font-style="normal" fill="#0b4d3e">Tel</text>
<line x1="268" y1="120" x2="268" y2="509" stroke="#a9d6c9"/>
<text x="271" y="134" font-size="9" text-anchor="start" font-weight="bold" font-style="normal" fill="#0b4d3e">TelSAV</text>
<line x1="326" y1="120" x2="326" y2="509" stroke="#a9d6c9"/>
<text x="329" y="134" font-size="9" text-anchor="start" font-weight="bold" font-style="normal" fill="#0b4d3e">Fax</text>
<line x1="384" y1="120" x2="384" y2="509" stroke="#a9d6c9"/>
<line x1="37" y1="158" x2="384" y2="158" stroke="#cfe9e1"/>
<line x1="37" y1="176" x2="384" y2="176" stroke="#cfe9e1"/>
<line x1="37" y1="194" x2="384" y2="194" stroke="#cfe9e1"/>
<line x1="37" y1="212" x2="384" y2="212" stroke="#cfe9e1"/>
<line x1="37" y1="230" x2="384" y2="230" stroke="#cfe9e1"/>
<line x1="37" y1="248" x2="384" y2="248" stroke="#cfe9e1"/>
<line x1="37" y1="266" x2="384" y2="266" stroke="#cfe9e1"/>
<line x1="37" y1="284" x2="384" y2="284" stroke="#cfe9e1"/>
<line x1="37" y1="302" x2="384" y2="302" stroke="#cfe9e1"/>
<line x1="37" y1="320" x2="384" y2="320" stroke="#cfe9e1"/>
<line x1="37" y1="338" x2="384" y2="338" stroke="#cfe9e1"/>
<line x1="37" y1="356" x2="384" y2="356" stroke="#cfe9e1"/>
<line x1="37" y1="374" x2="384" y2="374" stroke="#cfe9e1"/>
<line x1="37" y1="392" x2="384" y2="392" stroke="#cfe9e1"/>
<line x1="37" y1="410" x2="384" y2="410" stroke="#cfe9e1"/>
<line x1="37" y1="428" x2="384" y2="428" stroke="#cfe9e1"/>
<line x1="37" y1="446" x2="384" y2="446" stroke="#cfe9e1"/>
<line x1="37" y1="464" x2="384" y2="464" stroke="#cfe9e1"/>
<line x1="37" y1="482" x2="384" y2="482" stroke="#cfe9e1"/>
<text x="41" y="503" font-size="9" text-anchor="start" font-weight="normal" font-style="italic" fill="#0b4d3e">Table Fournisseurs</text>
<rect x="420" y="149" width="248" height="24" fill="#ffffff" stroke="#2f6fd6" stroke-width="1"  />
<text x="423" y="165" font-size="9" text-anchor="start" font-weight="normal" font-style="normal" fill="#444">Nom</text>
<rect x="524" y="151" width="142" height="20" fill="#fff" stroke="#8aa8e0"/>
<rect x="420" y="179" width="248" height="24" fill="#ffffff" stroke="#2f6fd6" stroke-width="1"  />
<text x="423" y="195" font-size="9" text-anchor="start" font-weight="normal" font-style="normal" fill="#444">Tel</text>
<rect x="524" y="181" width="142" height="20" fill="#fff" stroke="#8aa8e0"/>
<rect x="420" y="209" width="248" height="24" fill="#ffffff" stroke="#2f6fd6" stroke-width="1"  />
<text x="423" y="225" font-size="9" text-anchor="start" font-weight="normal" font-style="normal" fill="#444">TelSAV</text>
<rect x="524" y="211" width="142" height="20" fill="#fff" stroke="#8aa8e0"/>
<rect x="420" y="239" width="248" height="24" fill="#ffffff" stroke="#2f6fd6" stroke-width="1"  />
<text x="423" y="255" font-size="9" text-anchor="start" font-weight="normal" font-style="normal" fill="#444">Fax</text>
<rect x="524" y="241" width="142" height="20" fill="#fff" stroke="#8aa8e0"/>
<rect x="420" y="269" width="248" height="175" fill="#ffffff" stroke="#2f6fd6" stroke-width="1"  />
<text x="424" y="282" font-size="9" text-anchor="start" font-weight="normal" font-style="italic" fill="#444">Adresse</text>
<rect x="524" y="464" width="38" height="24" fill="#ffd9a0" stroke="#c77d00" stroke-width="1"  rx="4"/>
<text x="543" y="480" font-size="10" text-anchor="middle" font-weight="bold" font-style="normal" fill="#222">OK</text>
<rect x="568" y="464" width="38" height="24" fill="#ffd9a0" stroke="#c77d00" stroke-width="1"  rx="4"/>
<text x="587" y="480" font-size="10" text-anchor="middle" font-weight="bold" font-style="normal" fill="#222">Annu…</text>
<rect x="24" y="570" width="14" height="12" fill="#ffffff" stroke="#2f6fd6"/><text x="42" y="580" font-size="9" text-anchor="start" font-weight="normal" font-style="normal" fill="#222">Saisie (SAI_)</text>
<rect x="149" y="570" width="14" height="12" fill="#fff3c4" stroke="#b58a00"/><text x="167" y="580" font-size="9" text-anchor="start" font-weight="normal" font-style="normal" fill="#222">Combo (COMBO_)</text>
<rect x="274" y="570" width="14" height="12" fill="#ffd9a0" stroke="#c77d00"/><text x="292" y="580" font-size="9" text-anchor="start" font-weight="normal" font-style="normal" fill="#222">Bouton (BTN_)</text>
<rect x="399" y="570" width="14" height="12" fill="#f3f3f3" stroke="#999999"/><text x="417" y="580" font-size="9" text-anchor="start" font-weight="normal" font-style="normal" fill="#222">Libellé (LIB_)</text>
<rect x="524" y="570" width="14" height="12" fill="#dff3ee" stroke="#0f8a6f"/><text x="542" y="580" font-size="9" text-anchor="start" font-weight="normal" font-style="normal" fill="#222">Table (TABLE_)</text>
<rect x="649" y="570" width="14" height="12" fill="#e6f4e6" stroke="#2e8b3d"/><text x="667" y="580" font-size="9" text-anchor="start" font-weight="normal" font-style="normal" fill="#222">Liste (LISTE_/LSI_)</text>
<rect x="774" y="570" width="14" height="12" fill="#ece3fb" stroke="#7a48c9"/><text x="792" y="580" font-size="9" text-anchor="start" font-weight="normal" font-style="normal" fill="#222">Image (IMG_)</text>
</svg>